<mxfile host="app.diagrams.net" modified="2021-08-31T02:00:14.474Z" agent="5.0 (Windows NT 10.0; Win64; x64) AppleWebKit/537.36 (KHTML, like Gecko) Chrome/92.0.4515.159 Safari/537.36" etag="wyDr03YAvGBE6afCX1No" version="15.0.3" type="github">
  <diagram id="C5RBs43oDa-KdzZeNtuy" name="Page-1">
    <mxGraphModel dx="868" dy="482" grid="1" gridSize="10" guides="1" tooltips="1" connect="1" arrows="1" fold="1" page="1" pageScale="1" pageWidth="827" pageHeight="1169" math="0" shadow="0">
      <root>
        <mxCell id="WIyWlLk6GJQsqaUBKTNV-0" />
        <mxCell id="WIyWlLk6GJQsqaUBKTNV-1" parent="WIyWlLk6GJQsqaUBKTNV-0" />
        <mxCell id="WkRwKCfJqdVOhUtzeRTr-0" value="User" style="swimlane;fontStyle=2;align=center;verticalAlign=top;childLayout=stackLayout;horizontal=1;startSize=26;horizontalStack=0;resizeParent=1;resizeLast=0;collapsible=1;marginBottom=0;rounded=0;shadow=0;strokeWidth=1;fillColor=#76608a;strokeColor=#432D57;fontColor=#ffffff;" vertex="1" parent="WIyWlLk6GJQsqaUBKTNV-1">
          <mxGeometry x="402.5" y="140" width="160" height="30" as="geometry">
            <mxRectangle x="230" y="140" width="160" height="26" as="alternateBounds" />
          </mxGeometry>
        </mxCell>
        <mxCell id="WkRwKCfJqdVOhUtzeRTr-23" value="UserInfoBiometric" style="swimlane;fontStyle=2;align=center;verticalAlign=top;childLayout=stackLayout;horizontal=1;startSize=26;horizontalStack=0;resizeParent=1;resizeLast=0;collapsible=1;marginBottom=0;rounded=0;shadow=0;strokeWidth=1;" vertex="1" parent="WIyWlLk6GJQsqaUBKTNV-1">
          <mxGeometry x="390" y="200" width="185" height="190" as="geometry">
            <mxRectangle x="230" y="140" width="160" height="26" as="alternateBounds" />
          </mxGeometry>
        </mxCell>
        <mxCell id="WkRwKCfJqdVOhUtzeRTr-24" value="id: BigInteger" style="text;align=left;verticalAlign=top;spacingLeft=4;spacingRight=4;overflow=hidden;rotatable=0;points=[[0,0.5],[1,0.5]];portConstraint=eastwest;" vertex="1" parent="WkRwKCfJqdVOhUtzeRTr-23">
          <mxGeometry y="26" width="185" height="24" as="geometry" />
        </mxCell>
        <mxCell id="WkRwKCfJqdVOhUtzeRTr-25" value="idUser: BigInteger" style="text;align=left;verticalAlign=top;spacingLeft=4;spacingRight=4;overflow=hidden;rotatable=0;points=[[0,0.5],[1,0.5]];portConstraint=eastwest;rounded=0;shadow=0;html=0;" vertex="1" parent="WkRwKCfJqdVOhUtzeRTr-23">
          <mxGeometry y="50" width="185" height="20" as="geometry" />
        </mxCell>
        <mxCell id="WkRwKCfJqdVOhUtzeRTr-26" value="faceId: varchar(120)" style="text;align=left;verticalAlign=top;spacingLeft=4;spacingRight=4;overflow=hidden;rotatable=0;points=[[0,0.5],[1,0.5]];portConstraint=eastwest;rounded=0;shadow=0;html=0;" vertex="1" parent="WkRwKCfJqdVOhUtzeRTr-23">
          <mxGeometry y="70" width="185" height="20" as="geometry" />
        </mxCell>
        <mxCell id="WkRwKCfJqdVOhUtzeRTr-27" value="externalId: varchar(50)" style="text;align=left;verticalAlign=top;spacingLeft=4;spacingRight=4;overflow=hidden;rotatable=0;points=[[0,0.5],[1,0.5]];portConstraint=eastwest;rounded=0;shadow=0;html=0;" vertex="1" parent="WkRwKCfJqdVOhUtzeRTr-23">
          <mxGeometry y="90" width="185" height="20" as="geometry" />
        </mxCell>
        <mxCell id="WkRwKCfJqdVOhUtzeRTr-28" value="bucketS3name: varchar(100)" style="text;align=left;verticalAlign=top;spacingLeft=4;spacingRight=4;overflow=hidden;rotatable=0;points=[[0,0.5],[1,0.5]];portConstraint=eastwest;rounded=0;shadow=0;html=0;" vertex="1" parent="WkRwKCfJqdVOhUtzeRTr-23">
          <mxGeometry y="110" width="185" height="20" as="geometry" />
        </mxCell>
        <mxCell id="WkRwKCfJqdVOhUtzeRTr-29" value="fileName: varchar(100)" style="text;align=left;verticalAlign=top;spacingLeft=4;spacingRight=4;overflow=hidden;rotatable=0;points=[[0,0.5],[1,0.5]];portConstraint=eastwest;rounded=0;shadow=0;html=0;" vertex="1" parent="WkRwKCfJqdVOhUtzeRTr-23">
          <mxGeometry y="130" width="185" height="20" as="geometry" />
        </mxCell>
        <mxCell id="WkRwKCfJqdVOhUtzeRTr-30" value="" style="line;html=1;strokeWidth=1;align=left;verticalAlign=middle;spacingTop=-1;spacingLeft=3;spacingRight=3;rotatable=0;labelPosition=right;points=[];portConstraint=eastwest;" vertex="1" parent="WkRwKCfJqdVOhUtzeRTr-23">
          <mxGeometry y="150" width="185" height="40" as="geometry" />
        </mxCell>
        <mxCell id="WkRwKCfJqdVOhUtzeRTr-31" value="" style="endArrow=open;shadow=0;strokeWidth=1;rounded=0;endFill=1;edgeStyle=elbowEdgeStyle;elbow=vertical;exitX=0.5;exitY=1;exitDx=0;exitDy=0;entryX=0.5;entryY=0;entryDx=0;entryDy=0;" edge="1" parent="WIyWlLk6GJQsqaUBKTNV-1" source="WkRwKCfJqdVOhUtzeRTr-0" target="WkRwKCfJqdVOhUtzeRTr-23">
          <mxGeometry x="0.5" y="41" relative="1" as="geometry">
            <mxPoint x="537.5" y="350" as="sourcePoint" />
            <mxPoint x="604.5" y="350" as="targetPoint" />
            <mxPoint x="-40" y="32" as="offset" />
          </mxGeometry>
        </mxCell>
        <mxCell id="WkRwKCfJqdVOhUtzeRTr-32" value="1..1" style="resizable=0;align=left;verticalAlign=bottom;labelBackgroundColor=none;fontSize=12;" connectable="0" vertex="1" parent="WkRwKCfJqdVOhUtzeRTr-31">
          <mxGeometry x="-1" relative="1" as="geometry">
            <mxPoint x="5" y="30" as="offset" />
          </mxGeometry>
        </mxCell>
        <mxCell id="WkRwKCfJqdVOhUtzeRTr-33" value="" style="resizable=0;align=right;verticalAlign=bottom;labelBackgroundColor=none;fontSize=12;" connectable="0" vertex="1" parent="WkRwKCfJqdVOhUtzeRTr-31">
          <mxGeometry x="1" relative="1" as="geometry">
            <mxPoint x="-7" y="4" as="offset" />
          </mxGeometry>
        </mxCell>
        <mxCell id="WkRwKCfJqdVOhUtzeRTr-34" value="Diagrama de clase modulo REGISTRO / AUTENTICACION" style="text;html=1;resizable=0;points=[];autosize=1;align=left;verticalAlign=top;spacingTop=-4;fontSize=30;fontStyle=1" vertex="1" parent="WIyWlLk6GJQsqaUBKTNV-1">
          <mxGeometry x="56.5" y="40" width="830" height="40" as="geometry" />
        </mxCell>
        <mxCell id="WkRwKCfJqdVOhUtzeRTr-35" value="" style="line;strokeWidth=2;html=1;fontSize=14;" vertex="1" parent="WIyWlLk6GJQsqaUBKTNV-1">
          <mxGeometry x="10" y="85.5" width="1060" height="10" as="geometry" />
        </mxCell>
      </root>
    </mxGraphModel>
  </diagram>
</mxfile>
